<?xml version="1.0" standalone="no"?>
<!DOCTYPE svg PUBLIC "-//W3C//DTD SVG 20010904//EN"
 "http://www.w3.org/TR/2001/REC-SVG-20010904/DTD/svg10.dtd">
<svg version="1.0" xmlns="http://www.w3.org/2000/svg"
 width="381.000000pt" height="381.000000pt" viewBox="0 0 381.000000 381.000000"
 preserveAspectRatio="xMidYMid meet">
<metadata>
Created by potrace 1.11, written by Peter Selinger 2001-2013
</metadata>
<g transform="translate(0.000000,381.000000) scale(0.100000,-0.100000)"
fill="#000000" stroke="none">
<path d="M1928 3271 c-98 -98 -178 -182 -178 -185 0 -7 27 -35 67 -69 20 -17
22 -16 83 47 35 36 66 64 69 62 3 -2 6 -572 6 -1265 l0 -1261 640 -1 c352 0
694 -1 759 0 l119 0 -76 -77 -76 -77 39 -43 c21 -23 42 -42 46 -42 4 0 88 81
187 180 l179 180 -180 180 c-99 99 -183 180 -185 180 -3 0 -24 -18 -47 -41
l-42 -41 61 -62 c33 -34 61 -64 61 -66 0 -3 -271 -5 -602 -5 l-603 0 -3 1135
-2 1135 67 -67 68 -67 30 28 c67 61 76 43 -123 241 -99 99 -182 180 -184 180
-2 0 -83 -81 -180 -179z"/>
<path d="M838 2465 c-2 -2 -29 -6 -61 -9 -78 -9 -198 -49 -277 -93 -357 -195
-524 -621 -436 -1108 70 -381 357 -650 736 -690 65 -7 281 -7 313 0 12 2 40 7
62 10 155 22 295 73 418 152 78 50 77 38 16 169 l-38 83 -83 -44 c-230 -121
-478 -164 -693 -119 -86 18 -214 93 -276 161 -49 54 -104 148 -128 219 -24 73
-29 99 -37 190 l-7 71 629 1 c346 0 649 1 673 1 l44 1 -6 163 c-4 130 -10 181
-31 259 -84 318 -292 518 -596 574 -34 6 -217 13 -222 9z m232 -255 c155 -52
251 -159 302 -335 14 -50 23 -107 23 -150 l0 -70 -508 0 c-280 0 -513 3 -519
6 -23 14 34 216 88 312 56 101 160 192 264 231 103 39 246 41 350 6z"/>
</g>
</svg>
